<svg width="24" height="24" viewBox="0 0 24 24" fill="none" xmlns="http://www.w3.org/2000/svg">
<path d="M8.57592 3.40421C7.33825 7.88006 8.26939 15.3263 20.5661 15.497M7.70356 3.806C7.22615 5.95665 7.2392 8.6419 8.5734 10.9949C10.2264 13.9101 13.7655 16.0801 20.2229 16.2405C18.6854 19.216 15.5802 21.25 12 21.25C6.89137 21.25 2.75 17.1086 2.75 12C2.75 8.44309 4.75799 5.3537 7.70356 3.806ZM20.8345 14.7496C14.3007 14.7148 11.2202 12.6218 9.87823 10.2551C8.56721 7.9429 8.77521 5.13581 9.45018 3.1057C10.2594 2.87418 11.1146 2.75 12 2.75C17.1086 2.75 21.25 6.89137 21.25 12C21.25 12.9575 21.1045 13.8809 20.8345 14.7496Z" stroke="#686C6F" stroke-width="1.5"/>
</svg>
