<svg width="24" height="24" viewBox="0 0 24 24" fill="none" xmlns="http://www.w3.org/2000/svg">
<mask id="path-2-inside-1_1_156" fill="white">
<path fill-rule="evenodd" clip-rule="evenodd" d="M11.75 5C12.1642 5 12.5 5.33579 12.5 5.75V7.02469C13.3287 7.10696 14.0979 7.39157 14.7574 7.82841L15.7123 6.87347C16.0052 6.58058 16.4801 6.58058 16.773 6.87347C17.0659 7.16636 17.0659 7.64124 16.773 7.93413L15.8715 8.83565C16.3756 9.45173 16.7356 10.1903 16.9 11H18.25C18.6642 11 19 11.3358 19 11.75C19 12.1642 18.6642 12.5 18.25 12.5H16.9753C16.893 13.3287 16.6084 14.0978 16.1716 14.7574L17.1265 15.7123C17.4194 16.0052 17.4194 16.4801 17.1265 16.7729C16.8336 17.0658 16.3588 17.0658 16.0659 16.7729L15.1644 15.8715C14.4236 16.4777 13.5056 16.8755 12.5 16.9753V18.25C12.5 18.6642 12.1642 19 11.75 19C11.3358 19 11 18.6642 11 18.25V16.9C10.1903 16.7356 9.45173 16.3756 8.83565 15.8715L7.93417 16.773C7.64128 17.0659 7.1664 17.0659 6.87351 16.773C6.58062 16.4801 6.58062 16.0052 6.87351 15.7123L7.82841 14.7574C7.39157 14.0979 7.10696 13.3287 7.02469 12.5H5.75C5.33579 12.5 5 12.1642 5 11.75C5 11.3358 5.33579 11 5.75 11H7.10002C7.26437 10.1903 7.62438 9.4517 8.12854 8.83562L7.22704 7.93411C6.93414 7.64122 6.93414 7.16634 7.22704 6.87345C7.51993 6.58056 7.9948 6.58056 8.2877 6.87345L9.24263 7.82838C9.76743 7.4808 10.3616 7.2296 11 7.10002V5.75C11 5.33579 11.3358 5 11.75 5Z"/>
</mask>
<path fill-rule="evenodd" clip-rule="evenodd" d="M11.75 5C12.1642 5 12.5 5.33579 12.5 5.75V7.02469C13.3287 7.10696 14.0979 7.39157 14.7574 7.82841L15.7123 6.87347C16.0052 6.58058 16.4801 6.58058 16.773 6.87347C17.0659 7.16636 17.0659 7.64124 16.773 7.93413L15.8715 8.83565C16.3756 9.45173 16.7356 10.1903 16.9 11H18.25C18.6642 11 19 11.3358 19 11.75C19 12.1642 18.6642 12.5 18.25 12.5H16.9753C16.893 13.3287 16.6084 14.0978 16.1716 14.7574L17.1265 15.7123C17.4194 16.0052 17.4194 16.4801 17.1265 16.7729C16.8336 17.0658 16.3588 17.0658 16.0659 16.7729L15.1644 15.8715C14.4236 16.4777 13.5056 16.8755 12.5 16.9753V18.25C12.5 18.6642 12.1642 19 11.75 19C11.3358 19 11 18.6642 11 18.25V16.9C10.1903 16.7356 9.45173 16.3756 8.83565 15.8715L7.93417 16.773C7.64128 17.0659 7.1664 17.0659 6.87351 16.773C6.58062 16.4801 6.58062 16.0052 6.87351 15.7123L7.82841 14.7574C7.39157 14.0979 7.10696 13.3287 7.02469 12.5H5.75C5.33579 12.5 5 12.1642 5 11.75C5 11.3358 5.33579 11 5.75 11H7.10002C7.26437 10.1903 7.62438 9.4517 8.12854 8.83562L7.22704 7.93411C6.93414 7.64122 6.93414 7.16634 7.22704 6.87345C7.51993 6.58056 7.9948 6.58056 8.2877 6.87345L9.24263 7.82838C9.76743 7.4808 10.3616 7.2296 11 7.10002V5.75C11 5.33579 11.3358 5 11.75 5Z" fill="#F5F5F5"/>
<path d="M12.5 7.02469H11.5V7.93032L12.4012 8.01979L12.5 7.02469ZM14.7574 7.82841L14.2052 8.66212L14.8866 9.11343L15.4645 8.53552L14.7574 7.82841ZM15.7123 6.87347L16.4195 7.58058L16.4195 7.58058L15.7123 6.87347ZM16.773 6.87347L16.0659 7.58058L16.0659 7.58058L16.773 6.87347ZM16.773 7.93413L16.0659 7.22702V7.22702L16.773 7.93413ZM15.8715 8.83565L15.1644 8.12854L14.5244 8.76852L15.0976 9.46895L15.8715 8.83565ZM16.9 11L15.92 11.1989L16.0826 12H16.9V11ZM16.9753 12.5V11.5H16.0697L15.9802 12.4012L16.9753 12.5ZM16.1716 14.7574L15.3379 14.2052L14.8866 14.8866L15.4645 15.4645L16.1716 14.7574ZM15.1644 15.8715L15.8715 15.1644L15.2315 14.5244L14.5311 15.0976L15.1644 15.8715ZM12.5 16.9753L12.4012 15.9802L11.5 16.0697V16.9753H12.5ZM11 16.9H12V16.0826L11.1989 15.92L11 16.9ZM8.83565 15.8715L9.46895 15.0976L8.76852 14.5244L8.12854 15.1644L8.83565 15.8715ZM7.93417 16.773L7.22706 16.0659H7.22706L7.93417 16.773ZM6.87351 16.773L7.58062 16.0659L6.87351 16.773ZM6.87351 15.7123L6.1664 15.0052H6.1664L6.87351 15.7123ZM7.82841 14.7574L8.53551 15.4645L9.11343 14.8866L8.66212 14.2052L7.82841 14.7574ZM7.02469 12.5L8.01979 12.4012L7.93032 11.5H7.02469V12.5ZM5.75 12.5L5.75 13.5H5.75V12.5ZM5.75 11L5.75 12H5.75V11ZM7.10002 11V12H7.91742L8.08003 11.1989L7.10002 11ZM8.12854 8.83562L8.90244 9.46892L9.47563 8.76849L8.83565 8.12851L8.12854 8.83562ZM7.22704 7.93411L7.93414 7.227V7.227L7.22704 7.93411ZM7.22704 6.87345L6.51993 6.16634L6.51993 6.16634L7.22704 6.87345ZM8.2877 6.87345L7.58059 7.58056L8.2877 6.87345ZM9.24263 7.82838L8.53552 8.53549L9.11343 9.1134L9.79481 8.66211L9.24263 7.82838ZM11 7.10002L11.1989 8.08003L12 7.91742V7.10002H11ZM13.5 5.75C13.5 4.7835 12.7165 4 11.75 4V6C11.6119 6 11.5 5.88807 11.5 5.75H13.5ZM13.5 7.02469V5.75H11.5V7.02469H13.5ZM12.4012 8.01979C13.0635 8.08555 13.6777 8.31274 14.2052 8.66212L15.3096 6.99469C14.518 6.47041 13.5939 6.12838 12.5988 6.02958L12.4012 8.01979ZM15.0052 6.16636L14.0503 7.1213L15.4645 8.53552L16.4195 7.58058L15.0052 6.16636ZM17.4801 6.16636C16.7967 5.48295 15.6887 5.48295 15.0052 6.16636L16.4195 7.58058C16.3218 7.67821 16.1635 7.67821 16.0659 7.58058L17.4801 6.16636ZM17.4801 8.64124C18.1635 7.95782 18.1635 6.84978 17.4801 6.16636L16.0659 7.58058C15.9683 7.48295 15.9683 7.32465 16.0659 7.22702L17.4801 8.64124ZM16.5786 9.54276L17.4801 8.64124L16.0659 7.22702L15.1644 8.12854L16.5786 9.54276ZM15.0976 9.46895C15.5014 9.96247 15.7888 10.5528 15.92 11.1989L17.88 10.8011C17.6824 9.82787 17.2498 8.94098 16.6454 8.20235L15.0976 9.46895ZM18.25 10H16.9V12H18.25V10ZM20 11.75C20 10.7835 19.2165 10 18.25 10V12C18.1119 12 18 11.8881 18 11.75H20ZM18.25 13.5C19.2165 13.5 20 12.7165 20 11.75H18C18 11.6119 18.1119 11.5 18.25 11.5V13.5ZM16.9753 13.5H18.25V11.5H16.9753V13.5ZM15.9802 12.4012C15.9144 13.0635 15.6873 13.6777 15.3379 14.2052L17.0053 15.3096C17.5296 14.518 17.8716 13.5939 17.9704 12.5988L15.9802 12.4012ZM17.8336 15.0052L16.8787 14.0503L15.4645 15.4645L16.4194 16.4194L17.8336 15.0052ZM17.8336 17.4801C18.5171 16.7966 18.5171 15.6886 17.8336 15.0052L16.4194 16.4194C16.3218 16.3218 16.3218 16.1635 16.4194 16.0658L17.8336 17.4801ZM15.3588 17.4801C16.0422 18.1635 17.1502 18.1635 17.8336 17.4801L16.4194 16.0658C16.5171 15.9682 16.6753 15.9682 16.773 16.0658L15.3588 17.4801ZM14.4573 16.5786L15.3588 17.4801L16.773 16.0658L15.8715 15.1644L14.4573 16.5786ZM14.5311 15.0976C13.9378 15.583 13.2045 15.9004 12.4012 15.9802L12.5988 17.9704C13.8067 17.8505 14.9093 17.3723 15.7977 16.6454L14.5311 15.0976ZM13.5 18.25V16.9753H11.5V18.25H13.5ZM11.75 20C12.7165 20 13.5 19.2165 13.5 18.25H11.5C11.5 18.1119 11.6119 18 11.75 18V20ZM10 18.25C10 19.2165 10.7835 20 11.75 20V18C11.8881 18 12 18.1119 12 18.25H10ZM10 16.9V18.25H12V16.9H10ZM11.1989 15.92C10.5528 15.7888 9.96247 15.5014 9.46895 15.0976L8.20235 16.6454C8.94098 17.2498 9.82787 17.6824 10.8011 17.88L11.1989 15.92ZM8.64128 17.4801L9.54276 16.5786L8.12854 15.1644L7.22706 16.0659L8.64128 17.4801ZM6.1664 17.4801C6.84982 18.1635 7.95786 18.1635 8.64128 17.4801L7.22706 16.0659C7.32469 15.9682 7.48299 15.9682 7.58062 16.0659L6.1664 17.4801ZM6.1664 15.0052C5.48299 15.6886 5.48299 16.7967 6.1664 17.4801L7.58062 16.0659C7.67825 16.1635 7.67825 16.3218 7.58062 16.4194L6.1664 15.0052ZM7.1213 14.0503L6.1664 15.0052L7.58062 16.4194L8.53551 15.4645L7.1213 14.0503ZM8.66212 14.2052C8.31274 13.6777 8.08555 13.0635 8.01979 12.4012L6.02958 12.5988C6.12838 13.5939 6.47041 14.518 6.99469 15.3096L8.66212 14.2052ZM5.75 13.5H7.02469V11.5H5.75V13.5ZM4 11.75C4 12.7165 4.7835 13.5 5.75 13.5L5.75 11.5C5.88807 11.5 6 11.6119 6 11.75H4ZM5.75 10C4.7835 10 4 10.7835 4 11.75H6C6 11.8881 5.88807 12 5.75 12L5.75 10ZM7.10002 10H5.75V12H7.10002V10ZM8.08003 11.1989C8.21119 10.5528 8.49858 9.96245 8.90244 9.46892L7.35464 8.20231C6.75019 8.94095 6.31756 9.82785 6.12001 10.8011L8.08003 11.1989ZM6.51993 8.64122L7.42144 9.54272L8.83565 8.12851L7.93414 7.227L6.51993 8.64122ZM6.51993 6.16634C5.83651 6.84976 5.83651 7.9578 6.51993 8.64122L7.93414 7.227C8.03177 7.32463 8.03177 7.48292 7.93414 7.58056L6.51993 6.16634ZM8.9948 6.16634C8.31139 5.48293 7.20335 5.48292 6.51993 6.16634L7.93414 7.58056C7.83651 7.67819 7.67822 7.67819 7.58059 7.58056L8.9948 6.16634ZM9.94974 7.12128L8.9948 6.16634L7.58059 7.58056L8.53552 8.53549L9.94974 7.12128ZM9.79481 8.66211C10.2147 8.38399 10.6894 8.18347 11.1989 8.08003L10.8011 6.12C10.0339 6.27573 9.32013 6.57761 8.69045 6.99466L9.79481 8.66211ZM10 5.75V7.10002H12V5.75H10ZM11.75 4C10.7835 4 10 4.7835 10 5.75H12C12 5.88807 11.8881 6 11.75 6V4Z" fill="#877BD1" mask="url(#path-2-inside-1_1_156)"/>
</svg>
